<mxfile host="app.diagrams.net" agent="Mozilla/5.0 (Windows NT 10.0; Win64; x64) AppleWebKit/537.36 (KHTML, like Gecko) Chrome/131.0.0.0 Safari/537.36" version="26.0.4">
  <diagram name="第 1 页" id="LQ_lYQkiJh4G-tKT8WxR">
    <mxGraphModel dx="2261" dy="784" grid="1" gridSize="10" guides="1" tooltips="1" connect="1" arrows="1" fold="1" page="1" pageScale="1" pageWidth="827" pageHeight="1169" math="0" shadow="0">
      <root>
        <mxCell id="0" />
        <mxCell id="1" parent="0" />
        <mxCell id="kf7cG3kCLDTS_zNB6bXx-13" value="" style="edgeStyle=orthogonalEdgeStyle;rounded=0;orthogonalLoop=1;jettySize=auto;html=1;" edge="1" parent="1">
          <mxGeometry relative="1" as="geometry">
            <mxPoint x="370" y="140" as="sourcePoint" />
            <mxPoint x="210" y="200" as="targetPoint" />
            <Array as="points">
              <mxPoint x="370" y="141" />
              <mxPoint x="210" y="141" />
            </Array>
          </mxGeometry>
        </mxCell>
        <mxCell id="kf7cG3kCLDTS_zNB6bXx-23" value="" style="edgeStyle=orthogonalEdgeStyle;rounded=0;orthogonalLoop=1;jettySize=auto;html=1;" edge="1" parent="1" source="kf7cG3kCLDTS_zNB6bXx-1" target="kf7cG3kCLDTS_zNB6bXx-22">
          <mxGeometry relative="1" as="geometry" />
        </mxCell>
        <mxCell id="kf7cG3kCLDTS_zNB6bXx-1" value="&lt;font style=&quot;font-size: 20px;&quot;&gt;實耕者&lt;/font&gt;" style="rounded=1;whiteSpace=wrap;html=1;" vertex="1" parent="1">
          <mxGeometry x="370" y="20" width="120" height="60" as="geometry" />
        </mxCell>
        <mxCell id="kf7cG3kCLDTS_zNB6bXx-15" value="" style="edgeStyle=orthogonalEdgeStyle;rounded=0;orthogonalLoop=1;jettySize=auto;html=1;" edge="1" parent="1" source="kf7cG3kCLDTS_zNB6bXx-6" target="kf7cG3kCLDTS_zNB6bXx-14">
          <mxGeometry relative="1" as="geometry" />
        </mxCell>
        <mxCell id="kf7cG3kCLDTS_zNB6bXx-17" value="" style="edgeStyle=orthogonalEdgeStyle;rounded=0;orthogonalLoop=1;jettySize=auto;html=1;" edge="1" parent="1" source="kf7cG3kCLDTS_zNB6bXx-6" target="kf7cG3kCLDTS_zNB6bXx-16">
          <mxGeometry relative="1" as="geometry" />
        </mxCell>
        <mxCell id="kf7cG3kCLDTS_zNB6bXx-6" value="&lt;font style=&quot;font-size: 18px;&quot;&gt;&lt;font style=&quot;&quot;&gt;有&lt;/font&gt;&lt;span style=&quot;background-color: transparent; color: light-dark(rgb(0, 0, 0), rgb(255, 255, 255));&quot;&gt;資格證明&lt;/span&gt;&lt;/font&gt;&lt;div&gt;&lt;div&gt;&lt;font style=&quot;font-size: 18px;&quot;&gt;即將到期異常&lt;/font&gt;&lt;/div&gt;&lt;/div&gt;" style="rounded=1;whiteSpace=wrap;html=1;" vertex="1" parent="1">
          <mxGeometry x="600" y="280" width="120" height="60" as="geometry" />
        </mxCell>
        <mxCell id="kf7cG3kCLDTS_zNB6bXx-14" value="&lt;span style=&quot;font-size: 18px;&quot;&gt;不續辦&lt;/span&gt;" style="rounded=1;whiteSpace=wrap;html=1;" vertex="1" parent="1">
          <mxGeometry x="730" y="380" width="120" height="60" as="geometry" />
        </mxCell>
        <mxCell id="kf7cG3kCLDTS_zNB6bXx-16" value="&lt;span style=&quot;font-size: 18px;&quot;&gt;續辦&lt;/span&gt;" style="rounded=1;whiteSpace=wrap;html=1;" vertex="1" parent="1">
          <mxGeometry x="460" y="380" width="120" height="60" as="geometry" />
        </mxCell>
        <mxCell id="kf7cG3kCLDTS_zNB6bXx-28" value="" style="edgeStyle=orthogonalEdgeStyle;rounded=0;orthogonalLoop=1;jettySize=auto;html=1;" edge="1" parent="1" source="kf7cG3kCLDTS_zNB6bXx-18" target="kf7cG3kCLDTS_zNB6bXx-27">
          <mxGeometry relative="1" as="geometry" />
        </mxCell>
        <mxCell id="kf7cG3kCLDTS_zNB6bXx-30" value="" style="edgeStyle=orthogonalEdgeStyle;rounded=0;orthogonalLoop=1;jettySize=auto;html=1;" edge="1" parent="1" source="kf7cG3kCLDTS_zNB6bXx-18" target="kf7cG3kCLDTS_zNB6bXx-27">
          <mxGeometry relative="1" as="geometry" />
        </mxCell>
        <mxCell id="kf7cG3kCLDTS_zNB6bXx-32" value="" style="edgeStyle=orthogonalEdgeStyle;rounded=0;orthogonalLoop=1;jettySize=auto;html=1;" edge="1" parent="1" source="kf7cG3kCLDTS_zNB6bXx-18" target="kf7cG3kCLDTS_zNB6bXx-27">
          <mxGeometry relative="1" as="geometry" />
        </mxCell>
        <mxCell id="kf7cG3kCLDTS_zNB6bXx-18" value="&lt;span style=&quot;font-size: 18px;&quot;&gt;不續辦&lt;/span&gt;" style="rounded=1;whiteSpace=wrap;html=1;" vertex="1" parent="1">
          <mxGeometry x="150" y="180" width="120" height="60" as="geometry" />
        </mxCell>
        <mxCell id="kf7cG3kCLDTS_zNB6bXx-66" style="edgeStyle=orthogonalEdgeStyle;rounded=0;orthogonalLoop=1;jettySize=auto;html=1;entryX=0.5;entryY=0;entryDx=0;entryDy=0;" edge="1" parent="1" source="kf7cG3kCLDTS_zNB6bXx-22" target="kf7cG3kCLDTS_zNB6bXx-64">
          <mxGeometry relative="1" as="geometry" />
        </mxCell>
        <mxCell id="kf7cG3kCLDTS_zNB6bXx-22" value="&lt;font style=&quot;font-size: 16px;&quot;&gt;排程新增&lt;/font&gt;&lt;div&gt;&lt;font style=&quot;font-size: 16px;&quot;&gt;資格證明&lt;/font&gt;&lt;/div&gt;&lt;div&gt;&lt;font style=&quot;font-size: 16px;&quot;&gt;到期異常&lt;/font&gt;&lt;/div&gt;" style="rounded=1;whiteSpace=wrap;html=1;" vertex="1" parent="1">
          <mxGeometry x="370" y="110" width="120" height="60" as="geometry" />
        </mxCell>
        <mxCell id="kf7cG3kCLDTS_zNB6bXx-42" value="" style="edgeStyle=orthogonalEdgeStyle;rounded=0;orthogonalLoop=1;jettySize=auto;html=1;" edge="1" parent="1" source="kf7cG3kCLDTS_zNB6bXx-27" target="kf7cG3kCLDTS_zNB6bXx-34">
          <mxGeometry relative="1" as="geometry" />
        </mxCell>
        <mxCell id="kf7cG3kCLDTS_zNB6bXx-49" style="edgeStyle=orthogonalEdgeStyle;rounded=0;orthogonalLoop=1;jettySize=auto;html=1;" edge="1" parent="1" source="kf7cG3kCLDTS_zNB6bXx-27" target="kf7cG3kCLDTS_zNB6bXx-48">
          <mxGeometry relative="1" as="geometry" />
        </mxCell>
        <mxCell id="kf7cG3kCLDTS_zNB6bXx-27" value="&lt;span style=&quot;font-size: 18px;&quot;&gt;無資格證明&lt;/span&gt;&lt;div&gt;&lt;span style=&quot;font-size: 18px;&quot;&gt;即將到期異常&lt;/span&gt;&lt;/div&gt;" style="rounded=1;whiteSpace=wrap;html=1;" vertex="1" parent="1">
          <mxGeometry x="150" y="280" width="120" height="60" as="geometry" />
        </mxCell>
        <mxCell id="kf7cG3kCLDTS_zNB6bXx-44" value="" style="edgeStyle=orthogonalEdgeStyle;rounded=0;orthogonalLoop=1;jettySize=auto;html=1;" edge="1" parent="1" source="kf7cG3kCLDTS_zNB6bXx-34" target="kf7cG3kCLDTS_zNB6bXx-43">
          <mxGeometry relative="1" as="geometry" />
        </mxCell>
        <mxCell id="kf7cG3kCLDTS_zNB6bXx-47" style="edgeStyle=orthogonalEdgeStyle;rounded=0;orthogonalLoop=1;jettySize=auto;html=1;" edge="1" parent="1" source="kf7cG3kCLDTS_zNB6bXx-34" target="kf7cG3kCLDTS_zNB6bXx-46">
          <mxGeometry relative="1" as="geometry" />
        </mxCell>
        <mxCell id="kf7cG3kCLDTS_zNB6bXx-34" value="&lt;span style=&quot;font-size: 18px;&quot;&gt;續辦&lt;/span&gt;" style="rounded=1;whiteSpace=wrap;html=1;" vertex="1" parent="1">
          <mxGeometry x="-10" y="380" width="120" height="60" as="geometry" />
        </mxCell>
        <mxCell id="kf7cG3kCLDTS_zNB6bXx-61" style="edgeStyle=orthogonalEdgeStyle;rounded=0;orthogonalLoop=1;jettySize=auto;html=1;entryX=0.5;entryY=0;entryDx=0;entryDy=0;" edge="1" parent="1" source="kf7cG3kCLDTS_zNB6bXx-43" target="kf7cG3kCLDTS_zNB6bXx-60">
          <mxGeometry relative="1" as="geometry" />
        </mxCell>
        <mxCell id="kf7cG3kCLDTS_zNB6bXx-43" value="&lt;span style=&quot;font-size: 18px;&quot;&gt;新增資格證明即將到期異常&lt;/span&gt;" style="rounded=1;whiteSpace=wrap;html=1;" vertex="1" parent="1">
          <mxGeometry x="-70" y="480" width="120" height="60" as="geometry" />
        </mxCell>
        <mxCell id="kf7cG3kCLDTS_zNB6bXx-63" style="edgeStyle=orthogonalEdgeStyle;rounded=0;orthogonalLoop=1;jettySize=auto;html=1;entryX=0.5;entryY=0;entryDx=0;entryDy=0;" edge="1" parent="1" source="kf7cG3kCLDTS_zNB6bXx-46" target="kf7cG3kCLDTS_zNB6bXx-60">
          <mxGeometry relative="1" as="geometry" />
        </mxCell>
        <mxCell id="kf7cG3kCLDTS_zNB6bXx-46" value="&lt;span style=&quot;font-size: 18px;&quot;&gt;清空續辦&lt;/span&gt;" style="rounded=1;whiteSpace=wrap;html=1;" vertex="1" parent="1">
          <mxGeometry x="50" y="480" width="120" height="60" as="geometry" />
        </mxCell>
        <mxCell id="kf7cG3kCLDTS_zNB6bXx-53" style="edgeStyle=orthogonalEdgeStyle;rounded=0;orthogonalLoop=1;jettySize=auto;html=1;entryX=0.5;entryY=0;entryDx=0;entryDy=0;" edge="1" parent="1" source="kf7cG3kCLDTS_zNB6bXx-48" target="kf7cG3kCLDTS_zNB6bXx-50">
          <mxGeometry relative="1" as="geometry" />
        </mxCell>
        <mxCell id="kf7cG3kCLDTS_zNB6bXx-54" style="edgeStyle=orthogonalEdgeStyle;rounded=0;orthogonalLoop=1;jettySize=auto;html=1;entryX=0.5;entryY=0;entryDx=0;entryDy=0;" edge="1" parent="1" source="kf7cG3kCLDTS_zNB6bXx-48" target="kf7cG3kCLDTS_zNB6bXx-52">
          <mxGeometry relative="1" as="geometry" />
        </mxCell>
        <mxCell id="kf7cG3kCLDTS_zNB6bXx-48" value="&lt;span style=&quot;font-size: 18px;&quot;&gt;重新申請&lt;/span&gt;" style="rounded=1;whiteSpace=wrap;html=1;" vertex="1" parent="1">
          <mxGeometry x="300" y="380" width="120" height="60" as="geometry" />
        </mxCell>
        <mxCell id="kf7cG3kCLDTS_zNB6bXx-56" style="edgeStyle=orthogonalEdgeStyle;rounded=0;orthogonalLoop=1;jettySize=auto;html=1;entryX=0.5;entryY=0;entryDx=0;entryDy=0;" edge="1" parent="1" source="kf7cG3kCLDTS_zNB6bXx-50" target="kf7cG3kCLDTS_zNB6bXx-55">
          <mxGeometry relative="1" as="geometry" />
        </mxCell>
        <mxCell id="kf7cG3kCLDTS_zNB6bXx-50" value="&lt;span style=&quot;font-size: 18px;&quot;&gt;清空續辦&lt;/span&gt;" style="rounded=1;whiteSpace=wrap;html=1;" vertex="1" parent="1">
          <mxGeometry x="240" y="480" width="120" height="60" as="geometry" />
        </mxCell>
        <mxCell id="kf7cG3kCLDTS_zNB6bXx-57" style="edgeStyle=orthogonalEdgeStyle;rounded=0;orthogonalLoop=1;jettySize=auto;html=1;entryX=0.5;entryY=0;entryDx=0;entryDy=0;" edge="1" parent="1" source="kf7cG3kCLDTS_zNB6bXx-52" target="kf7cG3kCLDTS_zNB6bXx-55">
          <mxGeometry relative="1" as="geometry" />
        </mxCell>
        <mxCell id="kf7cG3kCLDTS_zNB6bXx-52" value="&lt;span style=&quot;font-size: 18px;&quot;&gt;清空持從農工作證明期限&lt;/span&gt;" style="rounded=1;whiteSpace=wrap;html=1;" vertex="1" parent="1">
          <mxGeometry x="360" y="480" width="120" height="60" as="geometry" />
        </mxCell>
        <mxCell id="kf7cG3kCLDTS_zNB6bXx-55" value="&lt;span style=&quot;font-size: 18px;&quot;&gt;續辦&lt;/span&gt;" style="rounded=1;whiteSpace=wrap;html=1;" vertex="1" parent="1">
          <mxGeometry x="300" y="570" width="120" height="60" as="geometry" />
        </mxCell>
        <mxCell id="kf7cG3kCLDTS_zNB6bXx-60" value="&lt;span style=&quot;font-size: 18px;&quot;&gt;續辦&lt;/span&gt;" style="rounded=1;whiteSpace=wrap;html=1;" vertex="1" parent="1">
          <mxGeometry x="-10" y="570" width="120" height="60" as="geometry" />
        </mxCell>
        <mxCell id="kf7cG3kCLDTS_zNB6bXx-65" value="" style="edgeStyle=orthogonalEdgeStyle;rounded=0;orthogonalLoop=1;jettySize=auto;html=1;" edge="1" parent="1" source="kf7cG3kCLDTS_zNB6bXx-64" target="kf7cG3kCLDTS_zNB6bXx-6">
          <mxGeometry relative="1" as="geometry" />
        </mxCell>
        <mxCell id="kf7cG3kCLDTS_zNB6bXx-64" value="&lt;span style=&quot;font-size: 18px;&quot;&gt;續辦&lt;/span&gt;" style="rounded=1;whiteSpace=wrap;html=1;" vertex="1" parent="1">
          <mxGeometry x="600" y="180" width="120" height="60" as="geometry" />
        </mxCell>
        <mxCell id="kf7cG3kCLDTS_zNB6bXx-67" value="" style="whiteSpace=wrap;html=1;aspect=fixed;fillColor=none;strokeColor=#FF3333;strokeWidth=6;" vertex="1" parent="1">
          <mxGeometry x="-95" y="360" width="290" height="290" as="geometry" />
        </mxCell>
      </root>
    </mxGraphModel>
  </diagram>
</mxfile>
